<?xml version="1.0" encoding="UTF-8"?><svg id="a" xmlns="http://www.w3.org/2000/svg" viewBox="0 0 959 110"><defs><style>.e{fill:#00f95b;}</style></defs><g id="b"><path class="e" d="M155.75,23.47h-21.84c-.77,0-1.38-.62-1.38-1.38V5.62c0-.77.62-1.38,1.38-1.38h64.14c.77,0,1.38.62,1.38,1.38v16.46c0,.77-.62,1.38-1.38,1.38h-21.84v80.91c0,.77-.62,1.38-1.38,1.38h-17.69c-.77,0-1.38-.62-1.38-1.38V23.47h0ZM188.67,12.7h-46.45c-1.08,0-1.08,2,0,2h22.77v81.52c0,1.08,2,1.08,2,0V14.7h21.69c1.54,0,1.38-2,0-2h0ZM330.18,4.24c.92,0,1.54.77,1.23,1.69l-26.46,98.91c-.15.62-.77.92-1.38.92h-16.92c-.62,0-1.08-.31-1.38-.92l-10.46-38.92-14.15,39.07c-.15.46-.46.77-1.08.77h-16.3c-.62,0-1.08-.31-1.23-.92L215.74,5.78c-.15-.77.31-1.54,1.38-1.54h17.69c.46,0,.92.46,1.08.92l17.07,65.22,12.77-38.61-7.08-25.84c-.31-.92.46-1.69,1.23-1.69h19.07c.62,0,.92.15,1.23.92l14.15,62.76,16.92-62.76c.15-.46.62-.92,1.23-.92h17.69ZM276.03,33.31l-23.23,61.84-24.92-81.99c-.31-1.08-2.15-.62-1.85.46l24.92,82.14c.46,2.15,3.08,2,3.85,0l22-59.37,16.15,59.22c.62,2.31,3.38,2.31,3.85.15l24.46-82.14c.46-1.08-1.54-1.69-1.85-.46l-24.3,81.99-22.46-81.99c-.15-1.08-2.15-.77-1.69.46l5.08,19.69ZM356.64,105.76c-.77,0-1.23-.62-1.23-1.38V5.62c0-.77.46-1.38,1.23-1.38h17.54c.77,0,1.38.62,1.38,1.38v98.75c0,.77-.62,1.38-1.38,1.38h-17.54ZM364.63,13.47v82.91c0,1.38,1.69,1.38,1.69,0V13.47c0-1.08-1.69-1.08-1.69,0h0ZM445.85,5.62c0-.77.62-1.38,1.38-1.38h17.69c.77,0,1.38.62,1.38,1.38v98.75c0,.77-.62,1.38-1.38,1.38h-17.07c-.62,0-1.23-.31-1.38-.77l-22.46-50.61v49.99c0,.77-.62,1.38-1.38,1.38h-17.54c-.77,0-1.23-.62-1.23-1.38V5.62c0-.77.46-1.38,1.23-1.38h18.15c.62,0,.92.46,1.08.77l21.53,49.68V5.62h0ZM456.93,96.53V13.47c0-1.08-2-1.38-2,0v79.06l-40.15-79.37c-.46-.62-1.69-.62-1.69.31v82.91c0,1.38,1.85,1.38,1.85,0V17.47l39.99,79.22c.62,1.08,2,.77,2-.15Z"/></g><g id="c"><path class="e" d="M527.81,4.24c17.07,0,27.37,9.69,27.37,27.68v19.37c0,16.45-10.15,27.52-27.37,27.52h-12.92v25.52c0,.77-.62,1.38-1.38,1.38h-17.68c-.62,0-1.08-.62-1.08-1.38V5.62c0-.77.46-1.38,1.08-1.38h31.98,0ZM535.03,46.68v-10.15c0-10.61-4.92-11.69-15.68-11.69h-4.46v33.83h4.46c8.46,0,15.68-1.54,15.68-11.99ZM545.95,50.21v-19.22c0-16.91-13.07-18.3-20.14-18.3h-20.76c-.31,0-.92.46-.92.92v82.72c0,1.08,1.85,1.08,1.85,0v-26.14h18.45c13.53,0,21.53-4.77,21.53-19.99h0ZM505.97,14.7h19.83c17.07,0,18.14,11.22,18.14,16.3v19.22c0,15.68-9.84,17.84-19.53,17.84h-18.45V14.7ZM595.61,4.24c.77,0,1.38.62,1.38,1.38v80.72h33.21c.77,0,1.38.62,1.38,1.38v16.61c0,.77-.62,1.38-1.38,1.38h-52.12c-.77,0-1.23-.62-1.23-1.38V5.62c0-.77.46-1.38,1.23-1.38h17.53ZM586.08,13.62v82.72c0,.31.31.77.92.77h35.52c1.23,0,1.23-2,0-2h-34.75V13.62c0-1.08-1.69-1.23-1.69,0h0ZM672.34,5.16c.15-.46.46-.92,1.08-.92h19.07c.62,0,.92.46,1.08.92l26.6,98.87c.15.92-.46,1.69-1.38,1.69h-17.53c-.46,0-.92-.31-1.08-.92l-6-21.53h-22.45l-5.84,21.53c-.15.62-.46.92-1.08.92h-17.68c-.92,0-1.54-.77-1.38-1.69l26.6-98.87ZM676.64,64.21h12.76l-6.61-23.22-6.15,23.22ZM700.32,73.28l7.07,23.06c.31.92,2,.77,1.54-.46l-24.6-81.8c-.46-2-3.08-2.15-3.54,0l-23.83,81.8c-.46,1.08,1.23,1.54,1.69.62l6.77-23.22h34.9ZM665.88,71.28l16.76-56.58,17.07,56.58h-33.83ZM753.21,5.01l13.38,25.83,13.07-25.83c.46-.77.62-.77,1.23-.77h17.22c.92,0,1.54.92,1.23,1.69l-22.29,51.82v46.59c0,.77-.62,1.38-1.38,1.38h-18.14c-.46,0-1.08-.62-1.08-1.38v-46.59l-22.91-51.51c-.31-1.08.15-2,1.23-2h17.22c.62,0,.77,0,1.23.77h0ZM767.36,54.21l19.22-39.98c.46-.92-1.08-1.69-1.69-.62l-18.3,38.29-18.76-38.29c-.62-1.08-2.31-.31-1.85.77l19.68,39.82v42.44c0,1.08,1.69,1.23,1.69,0v-42.44h0Z"/></g><path class="e" d="M806.06,91.7c-3.95,0-7.03,3.08-7.03,7.03s3.08,7.03,7.03,7.03,6.94-3.08,6.94-7.03-3.08-7.03-6.94-7.03ZM806.02,99.75c-.58,0-1.03-.45-1.03-1.03s.45-1.03,1.03-1.03,1.02.46,1.02,1.03-.46,1.03-1.02,1.03Z"/><path class="e" d="M952.55,4.24h-17.54c-.77,0-1.23.62-1.23,1.38v98.75c0,.77.46,1.38,1.23,1.38h17.54c.77,0,1.38-.62,1.38-1.38V5.62c0-.77-.62-1.38-1.38-1.38ZM944.71,96.38c0,1.38-1.69,1.38-1.69,0V13.47c0-1.08,1.69-1.08,1.69,0v82.91Z"/><path class="e" d="M853.43,72.39h33.83l-17.07-56.58-16.76,56.58ZM863.76,64.25l6.15-23.22,6.61,23.22h-12.76Z"/><path class="e" d="M907.27,104.07l-26.6-98.87c-.15-.46-.46-.92-1.08-.92h-19.07c-.61,0-.92.46-1.08.92l-26.6,98.87c-.15.92.46,1.69,1.38,1.69h17.68c.62,0,.92-.31,1.08-.92l5.84-21.53h22.45l6,21.53c.15.62.61.92,1.08.92h17.53c.92,0,1.54-.77,1.38-1.69ZM894.94,97.45l-7.07-23.06h-34.9l-6.77,23.22c-.46.92-2.15.46-1.69-.62l23.83-81.8c.46-2.15,3.07-2,3.54,0l24.6,81.8c.46,1.23-1.23,1.38-1.54.46Z"/><path class="e" d="M94.46,4.24H17.18c-6.69,0-12.12,5.43-12.12,12.12v77.28c0,6.69,5.43,12.12,12.12,12.12h77.28c6.69,0,12.12-5.43,12.12-12.12V16.36c0-6.69-5.43-12.12-12.12-12.12ZM24.42,26.99c-.84-.84-.84-2.21,0-3.06.84-.84,2.21-.84,3.06,0l6.79,6.79,6.79-6.79c.84-.84,2.21-.84,3.06,0,.84.84.84,2.21,0,3.06l-6.79,6.79,6.79,6.79c.84.84.84,2.21,0,3.06-.42.42-.98.63-1.53.63s-1.11-.21-1.53-.63l-6.79-6.79-6.79,6.79c-.42.42-.98.63-1.53.63s-1.11-.21-1.53-.63c-.84-.84-.84-2.21,0-3.06l6.79-6.79-6.79-6.79ZM25.18,82.72h0c-1.19,0-2.16-.97-2.16-2.16,0-1.19.97-2.16,2.16-2.16,19.91-.01,36.44-15,38.56-34.52h-6.39c-.76,0-1.47-.4-1.86-1.06-.39-.66-.4-1.47-.03-2.14l8.73-15.88c.38-.69,1.11-1.12,1.89-1.12s1.51.43,1.89,1.12l8.73,15.88c.37.67.36,1.48-.03,2.14-.39.66-1.1,1.06-1.86,1.06h-6.72c-2.14,21.92-20.62,38.83-42.91,38.84ZM77.45,86.75c-6.16,0-11.17-5.01-11.17-11.17s5.01-11.17,11.17-11.17,11.17,5.01,11.17,11.17-5.01,11.17-11.17,11.17Z"/><polygon class="e" points="66.08 30.33 61 39.56 71.15 39.56 66.08 30.33"/><circle class="e" cx="77.45" cy="75.58" r="6.85" transform="translate(-7.03 143.21) rotate(-82.98)"/></svg>